<svg id="Layer_1" height="512" viewBox="0 0 512 512" width="512" xmlns="http://www.w3.org/2000/svg" xmlns:xlink="http://www.w3.org/1999/xlink" data-name="Layer 1"><linearGradient id="linear-gradient" gradientUnits="userSpaceOnUse" x1="256.008" x2="256.008" y1="472.797" y2="66.767"><stop offset=".322" stop-color="#a163f5"/><stop offset=".466" stop-color="#b074ee"/><stop offset=".752" stop-color="#d8a1dd"/><stop offset=".898" stop-color="#efbad3"/></linearGradient><path d="m499.551 387.2-115.339-102.148 66.058-171.9a6.983 6.983 0 0 0 -11.921-6.931l-134.358 164.179-28.469-10.579-12.536-57.051a7.007 7.007 0 0 0 -3.206-4.469l-210.596-127.289a6.983 6.983 0 0 0 -10.4 7.632l40.616 165.869-2.45.376a7.948 7.948 0 0 0 -3.865 1.736l-60.595 50.18a6.862 6.862 0 0 0 6.4 11.841l71.946-22.2 53.13 129.2a10.052 10.052 0 0 0 2.7 3.759l23.24 20.146a10.036 10.036 0 0 0 12.753.314l54.578-42.755 2.815.776a6.021 6.021 0 0 0 1.551.216l253.07 1.8h.056a7.26 7.26 0 0 0 4.815-12.7zm-71.67-249.24-21.659 56.362-38.7 17.394zm-77.394 94.57 49.624-22.3-25.49 66.33-2.161-1.914a6.027 6.027 0 0 0 -4.43-1.493l-47.064 3.547-5.085-1.889zm-43.9 51.632-39.067 24.438-19.9-46.349zm-110.97 1.418-22.291 25.192-49.232-57.257a7.933 7.933 0 0 0 -2.241-1.809l-17.353-9.406a8 8 0 0 0 -5-.871l-8.19 1.258-5.866-23.96 80.3 27.3zm-64.517-105.291 56.54 13.432 39.2 56.571-23.111 26.119zm77.1 109.17-19.47 39.228-7.508-8.732zm26.61-26.613 22.408 52.189-70.079 43.828zm27.326-8-23.638-8.784-33.388-48.187 46.958 11.156zm-39.972-65.253-102.42-24.336-52.255-69.157zm-165.33-87.693 96.011 127.07-70.793-24.07zm-16.78 187.659 39.82-32.978 20.1-3.086 10.513 5.7-6.816 10.741c-.036.01-.073.017-.109.028zm114.835 121.087-52.535-127.754 1.809-.558 63.078 139.019zm12.419-38.811h.009a7.866 7.866 0 0 0 -.89 4.137l1.082 16.923-53.224-117.295 5.508-8.68 63.144 73.437zm14.306 53.609-2.843-44.452 44.078 12.149zm60.872-39.338-52.939-14.591 82.575-51.643 190.908 67.8zm42.623-74.356 36.925-23.093 44.368-3.348 104.264 92.341z" fill="url(#linear-gradient)"/></svg>